# xmcd CD database file
#
# Track frame offsets:
#	150
#	18972
#	30715
#	43590
#	57062
#	69402
#	89460
#	107992
#	129182
#	145292
#	156034
#	169422
#
# Disc length: 2618 seconds
#
# Revision: 1
# Processed by: cddbd v1.4PL0 Copyright (c) Steve Scherf et al.
# Submitted via: CDex 1.40Beta8
#
DISCID=9c0a380c
DTITLE=Dale Thompson - Dale Thompson and the Religious Overtones
DYEAR=1995
DGENRE=Blues/Christian
TTITLE0=Bombay Taxi Horn
TTITLE1=The Motel
TTITLE2=Thought I Met the Devil
TTITLE3=Wringing His Hands
TTITLE4=Blackout
TTITLE5=If God is Dead
TTITLE6=St. Vitus Dance
TTITLE7=Three Rusty Nails
TTITLE8=I Could
TTITLE9=Knob Creek Road
TTITLE10=Ed's Barber Pole
TTITLE11=Back the Road
EXTD=YEAR: 1995
EXTT0=
EXTT1=
EXTT2=
EXTT3=
EXTT4=
EXTT5=
EXTT6=
EXTT7=
EXTT8=
EXTT9=
EXTT10=
EXTT11=
PLAYORDER=
